<svg xmlns="http://www.w3.org/2000/svg" xmlns:xlink="http://www.w3.org/1999/xlink" width="1920" height="1080" viewBox="0 0 1920 1080">
  <defs>
    <clipPath id="clip-TU_IfA_-_E07_ISO_1">
      <rect width="1920" height="1080"/>
    </clipPath>
  </defs>
  <g id="TU_IfA_-_E07_ISO_1" data-name="TU IfA - E07 ISO – 1" clip-path="url(#clip-TU_IfA_-_E07_ISO_1)">
    <rect width="1920" height="1080" fill="#fff"/>
    <g id="Group_6699" data-name="Group 6699" transform="translate(24.598 -6.406)">
      <g id="_07_STAIR_DOWN" data-name="07_STAIR DOWN" transform="translate(721.425 622.492)">
        <path id="Path_19080" data-name="Path 19080" d="M12365.992,703.4l-41.961-24.234-1.812,1.081v7.967l43.773,25.314Z" transform="translate(-12260.795 -642.654)" stroke="#000" stroke-linejoin="round" stroke-width="2.288" fill-rule="evenodd"/>
        <path id="Path_19081" data-name="Path 19081" d="M12313.141,703.909l43.93,25.314V719.1l-43.93-25.314Z" transform="translate(-12260.538 -643.161)" stroke="#000" stroke-linejoin="round" stroke-width="2.288" fill-rule="evenodd"/>
        <path id="Path_19082" data-name="Path 19082" d="M12393.047,666.64l-43.93-25.31-8.727,5.059,43.852,25.309Z" transform="translate(-12261.433 -641.331)" fill="#fff" stroke="#000" stroke-linejoin="round" stroke-width="2.288" fill-rule="evenodd"/>
        <path id="Path_19083" data-name="Path 19083" d="M12383.883,682.377l-43.766-25.31-8.8,5.064,43.852,25.309Z" transform="translate(-12261.176 -641.881)" fill="#fff" stroke="#000" stroke-linejoin="round" stroke-width="2.288" fill-rule="evenodd"/>
        <path id="Path_19084" data-name="Path 19084" d="M12374.8,698.114l-43.852-25.31-8.727,5.059,43.773,25.309Z" transform="translate(-12260.795 -642.433)" fill="#fff" stroke="#000" stroke-linejoin="round" stroke-width="2.288" fill-rule="evenodd"/>
        <path id="Path_19085" data-name="Path 19085" d="M12365.789,713.855l-43.844-25.314-8.8,5.064,43.93,25.314Z" transform="translate(-12260.538 -642.978)" fill="#fff" stroke="#000" stroke-linejoin="round" stroke-width="2.288" fill-rule="evenodd"/>
        <path id="Path_19086" data-name="Path 19086" d="M12356.633,729.6l-43.852-25.319-8.719,5.064,43.766,25.314Z" transform="translate(-12260.173 -643.529)" fill="#fff" stroke="#000" stroke-linejoin="round" stroke-width="2.288" fill-rule="evenodd"/>
        <path id="Path_19087" data-name="Path 19087" d="M12347.539,745.324l-43.766-25.31-8.8,5.059,43.852,25.309Z" transform="translate(-12259.9 -644.08)" fill="#fff" stroke="#000" stroke-linejoin="round" stroke-width="2.288" fill-rule="evenodd"/>
        <path id="Path_19088" data-name="Path 19088" d="M12338.453,761.061l-43.852-25.31-8.719,5.064,43.766,25.309Z" transform="translate(-12259.527 -644.631)" fill="#fff" stroke="#000" stroke-linejoin="round" stroke-width="2.288" fill-rule="evenodd"/>
        <path id="Path_19089" data-name="Path 19089" d="M12320.727,781.856l8.727-5.059-43.852-25.31-8.8,5.059Z" transform="translate(-12259.263 -645.182)" fill="#fff" stroke="#000" stroke-linejoin="round" stroke-width="2.288" fill-rule="evenodd"/>
        <path id="Path_19090" data-name="Path 19090" d="M12311.484,797.6l8.8-5.063-43.852-25.31-8.719,5.064Z" transform="translate(-12258.907 -645.733)" fill="#fff" stroke="#000" stroke-linejoin="round" stroke-width="2.288" fill-rule="evenodd"/>
        <path id="Path_19091" data-name="Path 19091" d="M12311.211,808.277l-43.773-25.314-8.8,5.059,43.852,25.314Z" transform="translate(-12258.633 -646.279)" fill="#fff" stroke="#000" stroke-linejoin="round" stroke-width="2.288" fill-rule="evenodd"/>
        <path id="Path_19092" data-name="Path 19092" d="M12384.242,671.885l-43.852-25.309V656.7l43.852,25.31Z" transform="translate(-12261.433 -641.514)" stroke="#000" stroke-linejoin="round" stroke-width="2.288" fill-rule="evenodd"/>
        <path id="Path_19093" data-name="Path 19093" d="M12375.164,697.745V687.622l-43.852-25.309v10.123Z" transform="translate(-12261.176 -642.066)" stroke="#000" stroke-linejoin="round" stroke-width="2.288" fill-rule="evenodd"/>
        <path id="Path_19094" data-name="Path 19094" d="M12347.828,734.837l-43.766-25.314v10.127l43.766,25.31Z" transform="translate(-12260.173 -643.713)" stroke="#000" stroke-linejoin="round" stroke-width="2.288" fill-rule="evenodd"/>
        <path id="Path_19095" data-name="Path 19095" d="M12338.82,750.574l-43.852-25.314v10.127l43.852,25.31Z" transform="translate(-12259.9 -644.264)" stroke="#000" stroke-linejoin="round" stroke-width="2.288" fill-rule="evenodd"/>
        <path id="Path_19096" data-name="Path 19096" d="M12329.648,776.429V766.306L12285.883,741V751.12Z" transform="translate(-12259.527 -644.815)" stroke="#000" stroke-linejoin="round" stroke-width="2.288" fill-rule="evenodd"/>
        <path id="Path_19097" data-name="Path 19097" d="M12320.727,782.043l-43.93-25.309v10.127l43.93,25.31Z" transform="translate(-12259.263 -645.366)" stroke="#000" stroke-linejoin="round" stroke-width="2.288" fill-rule="evenodd"/>
        <path id="Path_19098" data-name="Path 19098" d="M12311.484,807.908V797.78l-43.766-25.309v10.123Z" transform="translate(-12258.907 -645.918)" stroke="#000" stroke-linejoin="round" stroke-width="2.288" fill-rule="evenodd"/>
        <path id="Path_19099" data-name="Path 19099" d="M12302.484,813.521l-43.852-25.314V798.33l43.852,25.314Z" transform="translate(-12258.633 -646.462)" stroke="#000" stroke-linejoin="round" stroke-width="2.288" fill-rule="evenodd"/>
      </g>
      <path id="_07_FLUR_02" data-name="07_FLUR_02" d="M12493.367,497.925,12785.7,329.151l116.93,67.51L12611.32,564.739Z" transform="translate(-11545.367 -7.926)" fill="#fff"/>
      <path id="_07_FGHEHL_FLOOR" data-name="07_FGHEHL_FLOOR" d="M12766.578,325.481l-175.406-101.264L12386.539,342.36l-146.172,28.128v56.26L12094.2,454.891l.078,56.245-146.172,28.124v56.267l175.328,101.264,350.8-202.531Z" transform="translate(-11526.354 -4.258)" fill="#fff" fill-rule="evenodd"/>
      <g id="_07_FACADE_LEFT" data-name="07_FACADE_LEFT" transform="translate(246.402 209.832)">
        <path id="Path_19074" data-name="Path 19074" d="M12220.727,247.478l29.156,50.633v72.011l146.172-28.129V213.723Z" transform="translate(-11782.251 -213.723)" fill="#fff" stroke="#000" stroke-linejoin="round" stroke-width="2.288" fill-rule="evenodd"/>
        <path id="Path_19075" data-name="Path 19075" d="M12220.727,248.7v56.26l29.156-5.626Z" transform="translate(-11782.251 -214.945)" fill="#fff" stroke="#000" stroke-linejoin="round" stroke-width="2.288" fill-rule="evenodd"/>
        <path id="Path_19076" data-name="Path 19076" d="M12244.578,301.214l-175.32,33.75,29.148,50.624v72l146.172-28.124Z" transform="translate(-11776.98 -216.781)" fill="#fff" stroke="#000" stroke-linejoin="round" stroke-width="2.288" fill-rule="evenodd"/>
        <path id="Path_19077" data-name="Path 19077" d="M12069.258,336.185v56.247l29.148-5.624Z" transform="translate(-11776.98 -218.005)" fill="#fff" stroke="#000" stroke-linejoin="round" stroke-width="2.288" fill-rule="evenodd"/>
        <path id="Path_19078" data-name="Path 19078" d="M11917.828,422.389l29.234,50.624v72l146.094-28.124V388.641Z" transform="translate(-11771.738 -219.837)" fill="#fff" stroke="#000" stroke-linejoin="round" stroke-width="2.288" fill-rule="evenodd"/>
        <path id="Path_19079" data-name="Path 19079" d="M11917.828,423.612v56.252l29.234-5.624Z" transform="translate(-11771.738 -221.06)" fill="#fff" stroke="#000" stroke-linejoin="round" stroke-width="2.288" fill-rule="evenodd"/>
        <path id="Path_19163" data-name="Path 19163" d="M11795.563,643.8V561.663l-29.156-50.624V649.427l29.156,50.619Z" transform="translate(-11766.406 -224.115)" fill="#fff" stroke="#000" stroke-linejoin="round" stroke-width="2.288" fill-rule="evenodd"/>
        <path id="Path_19164" data-name="Path 19164" d="M11941.727,604.368v-128.3l-175.32,33.748,29.156,50.624V642.58l146.164-28.124Z" transform="translate(-11766.406 -222.894)" fill="#fff" stroke="#000" stroke-linejoin="round" stroke-width="2.288" fill-rule="evenodd"/>
      </g>
      <g id="Grou07_FGHEHL_HATCH_LINEp_7064" data-name="Grou07_FGHEHL_HATCH/LINEp 7064" transform="translate(421.763 219.958)">
        <path id="Path_19102" data-name="Path 19102" d="M12381.008,576.614l108.133-62.445,108.211,62.445,8.719-5.059-116.93-67.515L12372.2,571.556Z" transform="translate(-11962.991 -233.998)" stroke="#000" stroke-linejoin="round" stroke-width="2.288" fill-rule="evenodd"/>
        <path id="Path_19103" data-name="Path 19103" d="M12298.914,608.976l-175.477,101.267-175.328-101.267V619.1l175.328,101.267L12298.914,619.1Z" transform="translate(-11948.109 -237.665)" stroke="#000" stroke-linejoin="round" stroke-width="2.288" fill-rule="evenodd"/>
        <path id="_07_FGHEHL_HATCH_LINE" data-name="07_FGHEHL_HATCH/LINE" d="M12868.344,384.2l-277.172-159.98L12386.539,342.36l-146.172,28.128v56.26L12094.2,454.891l.078,56.245-146.172,28.124v56.267" transform="translate(-11948.109 -224.217)" fill="none" stroke="#000" stroke-linejoin="round" stroke-width="2.288"/>
      </g>
      <g id="_07_FG_Hehl" data-name="07_FG Hehl" transform="translate(422.797 462.906)">
        <path id="Path_19104" data-name="Path 19104" d="M11976.766,528.59l-16.812-9.715V544.14l-10.766-6.257v-61.92l29.625,17.136v10.422l-18.859-10.889V508.5l16.813,9.72Z" transform="translate(-11949.188 -475.963)"/>
        <path id="Path_19105" data-name="Path 19105" d="M12022.836,573.616a10.46,10.46,0,0,1-7.617,1.458,27.6,27.6,0,0,1-9.984-3.777,36.606,36.606,0,0,1-14.383-14.9,49.08,49.08,0,0,1-5.344-22.289V522.963c0-8.526,1.656-14.17,4.875-16.911,3.3-2.745,7.938-2.328,14.148,1.243a35.1,35.1,0,0,1,13.2,12.579c2.984,5.024,4.633,11.218,5.1,18.576l-10.531-6.085c-.312-4.111-1.016-7.205-2.2-9.288a13.268,13.268,0,0,0-5.187-5.211c-2.984-1.685-5.031-1.68-6.367.02-1.414,1.7-2.039,5.231-2.039,10.589V539.7c0,5.644.625,10.167,2.117,13.576a16.264,16.264,0,0,0,7.234,8.006c2.117,1.238,3.766,1.739,5.188,1.513l.938-.211V551.229l-7.539-4.381v-9.44l18.383,10.653Z" transform="translate(-11950.439 -476.951)"/>
        <path id="Path_19106" data-name="Path 19106" d="M11986.75,627.824l-10.844-6.228V595.1l-15.953-9.233v26.5l-10.766-6.248V544.195l10.766,6.252V575.5l15.953,9.229V559.676l10.844,6.232Z" transform="translate(-11949.188 -478.348)"/>
        <path id="Path_19107" data-name="Path 19107" d="M12024.9,623.011l-16.9-9.734v16.414l19.961,11.523v10.378l-30.8-17.78v-61.92l30.727,17.736v10.417L12008,588.566v14.627l16.9,9.74Z" transform="translate(-11950.85 -479.318)"/>
        <path id="Path_19108" data-name="Path 19108" d="M12073.227,677.671l-10.844-6.233v-26.5l-16.031-9.224v26.493l-10.844-6.248V594.037l10.844,6.252v25.054l16.031,9.229V609.523l10.844,6.228Z" transform="translate(-11952.188 -480.089)"/>
        <path id="Path_19109" data-name="Path 19109" d="M12094.328,679.533l18.938,10.972v10.378l-29.781-17.225V621.734l10.844,6.257Z" transform="translate(-11953.858 -481.06)"/>
      </g>
      <g id="_00_ELEVATOR" data-name="00_ELEVATOR" transform="translate(905.402 102.406)">
        <path id="Path_20488" data-name="Path 20488" d="M960,152.989l58.455-33.749V897.6l-58.441,33.741Z" transform="translate(-930.772 -102.994)" fill="#fff" stroke="#000" stroke-linejoin="round" stroke-width="2" fill-rule="evenodd"/>
        <path id="Path_20489" data-name="Path 20489" d="M958.941,153.6l-29.227-16.874.012,778.355,29.227,16.874Z" transform="translate(-929.714 -103.605)" fill="#fff" stroke="#000" stroke-linejoin="round" stroke-width="2" fill-rule="evenodd"/>
        <path id="Path_20490" data-name="Path 20490" d="M929.714,135.547l29.227,16.874,58.49-33.76-28.377-16.256Z" transform="translate(-929.714 -102.406)" fill="#fff" stroke="#000" stroke-linejoin="round" stroke-width="2" fill-rule="evenodd"/>
        <line id="Line_7318" data-name="Line 7318" y2="32.609" transform="translate(59.341)" fill="none" stroke="#000" stroke-linecap="round" stroke-linejoin="round" stroke-width="2"/>
        <g id="_03_ELEVATOR_DOOR" data-name="03_ELEVATOR DOOR" transform="translate(2.668 440.801)">
          <path id="Path_19686" data-name="Path 19686" d="M4772.833,619.094V558.909l23.22,13.406V632.5Z" transform="translate(-4772.833 -558.909)" fill="#fff" stroke="#000" stroke-linejoin="round" stroke-width="1" fill-rule="evenodd"/>
          <path id="Path_19687" data-name="Path 19687" d="M4784.856,626.036V565.851l11.61,6.7v60.186Z" transform="translate(-4773.247 -559.148)" fill="#fff" stroke="#000" stroke-linejoin="round" stroke-width="1" fill-rule="evenodd"/>
          <path id="Path_19688" data-name="Path 19688" d="M4772.833,619.094V558.909l11.61,6.7V625.8Z" transform="translate(-4772.833 -558.909)" fill="#fff" stroke="#000" stroke-linejoin="round" stroke-width="1" fill-rule="evenodd"/>
        </g>
      </g>
      <g id="_07_FLUR" data-name="07_FLUR" transform="translate(772.56 557.513)">
        <path id="Path_19117" data-name="Path 19117" d="M12487.008,641.512l-58.469,33.757L12311.6,607.754,12370.07,574Z" transform="translate(-12311.602 -573.997)" fill="#fff" fill-rule="evenodd"/>
        <path id="Path_19118" data-name="Path 19118" d="M12311.6,608.976l116.938,67.509-9.352,5.438L12311.6,619.1V608.976" transform="translate(-12311.602 -575.22)" stroke="#000" stroke-linejoin="round" stroke-width="2.288" fill-rule="evenodd"/>
        <line id="Line_7291" data-name="Line 7291" x1="116.932" y1="67.511" transform="translate(0 33.755)" fill="#fff" stroke="#000" stroke-linecap="round" stroke-linejoin="round" stroke-width="2.288"/>
        <line id="Line_7295" data-name="Line 7295" x2="116.932" y2="67.511" transform="translate(58.466 0.001)" fill="#fff" stroke="#000" stroke-linecap="round" stroke-linejoin="round" stroke-width="2.288"/>
      </g>
      <g id="_07_BILDENE_KUNST_HATCH7LINE" data-name="07_BILDENE KUNST_HATCH7LINE" transform="translate(772.56 388.736)">
        <path id="Path_19120" data-name="Path 19120" d="M12428.539,669.15,12311.6,736.662l175.406,101.264,584.672-337.555-175.4-101.264m-409.273,236.285,116.938-67.509" transform="translate(-12311.602 -399.107)" fill="#fff" fill-rule="evenodd"/>
        <line id="Line_7292" data-name="Line 7292" y1="67.511" x2="116.932" transform="translate(0 270.043)" fill="none" stroke="#000" stroke-linecap="round" stroke-miterlimit="10" stroke-width="2.288"/>
        <line id="Line_7293" data-name="Line 7293" x1="116.932" y2="67.511" transform="translate(175.398 168.778)" fill="none" stroke="#000" stroke-linecap="round" stroke-miterlimit="10" stroke-width="2.288"/>
        <line id="Line_7294" data-name="Line 7294" x2="175.398" y2="101.266" transform="translate(584.661 0)" fill="none" stroke="#000" stroke-linecap="round" stroke-miterlimit="10" stroke-width="2.288"/>
        <path id="Path_19121" data-name="Path 19121" d="M12311.6,750.459l175.406,101.267,292.336-168.781,146.086-84.366,146.25-84.41V504.041l-69.391,40.088-76.859,44.322-73,42.186-73.086,42.181L12487.008,841.6,12311.6,740.332Z" transform="translate(-12311.602 -402.776)" stroke="#000" stroke-linejoin="round" stroke-width="2.288" fill-rule="evenodd"/>
      </g>
      <g id="_07_BILDENDE_KUNST_Text" data-name="07_BILDENDE KUNST Text" transform="translate(1224.887 358.406)">
        <path id="Path_23679" data-name="Path 23679" d="M33.749,194.429q2.031,2.53,2.043,7.962a31.1,31.1,0,0,1-4.4,16.574,35.14,35.14,0,0,1-12.846,12.149L.181,241.719,0,177.973l17.149-9.9q8.687-5.016,13.216-3.177t4.551,10.416a24.7,24.7,0,0,1-1.84,9.44,26.227,26.227,0,0,1-5.094,8.069Q31.722,191.9,33.749,194.429ZM23.084,215.651a15.078,15.078,0,0,0,1.547-6.993q-.024-8.573-5.439-5.67l-7.885,4.552.049,17.028,7.163-4.136a11.411,11.411,0,0,0,4.565-4.781M11.235,182.229l.046,15.943,5.829-3.366a12.52,12.52,0,0,0,6.573-11.651q-.012-4.335-1.544-5.332t-4.959.975l-5.945,3.431"/>
        <path id="Path_23680" data-name="Path 23680" d="M55.483,145.94l.181,63.747-11.205,6.469-.181-63.747Z"/>
        <path id="Path_23681" data-name="Path 23681" d="M126.733,171.755l.181,63.747-11.205,6.469-16.5-32.352.119,41.811-11.2,6.466-.181-63.747,11.2-6.466,16.54,32.381-.119-41.862Z"/>
        <path id="Path_23682" data-name="Path 23682" d="M76.092,134.041l.15,53.065,19.665-11.353.03,10.682L65.074,204.253l-.181-63.747Z"/>
        <path id="Path_23683" data-name="Path 23683" d="M153.061,155.68q5.1-2.947,9.112-2.784a7.365,7.365,0,0,1,6.174,3.431q2.168,3.267,2.181,9l-11.167,6.447c-.008-2.971-.564-4.928-1.673-5.853s-2.707-.781-4.788.421a11.966,11.966,0,0,0-4.566,4.634,12.711,12.711,0,0,0-1.626,6.311,3.947,3.947,0,0,0,1.84,3.692c1.223.712,3.392.93,6.493.661q8.121-1.317,11.816,1.467t3.712,10.356A28.857,28.857,0,0,1,166,209.123a35.29,35.29,0,0,1-12.527,11.928,20.093,20.093,0,0,1-9.794,3.113,8.189,8.189,0,0,1-6.936-3.279q-2.513-3.288-2.528-9.725l11.237-6.487q.017,5.524,1.894,6.931c1.243.951,3.282.611,6.1-1.015q5.871-3.389,5.847-10.526-.01-3.9-1.747-4.892t-6.32-.5q-8.352,1.185-12.027-1.587t-3.691-9.421a28.9,28.9,0,0,1,4.937-15.813A36.579,36.579,0,0,1,153.061,155.68Z"/>
        <path id="Path_23684" data-name="Path 23684" d="M132.412,108.63q5.8,3.753,5.942,16.043l.029,10.33a46.889,46.889,0,0,1-5.715,23.06A41.562,41.562,0,0,1,116.777,174.4L102.412,182.7l-.181-63.747,14.672-8.47Q126.614,104.872,132.412,108.63Zm-5.231,33.936-.031-11.079q-.025-8.925-2.206-11.2t-7.4.572l-4.073,2.351.12,42.339,3.352-1.935a18.752,18.752,0,0,0,7.875-7.942q2.28-4.722,2.367-13.1"/>
        <path id="Path_23685" data-name="Path 23685" d="M178.094,75.15l.03,10.726L157.553,97.753l.043,15.062,17.449-10.074.029,10.381L157.625,123.2l.048,16.9,20.648-11.921.03,10.682L146.5,157.243,146.317,93.5Z"/>
        <path id="Path_23686" data-name="Path 23686" d="M223.4,48.993l.181,63.747-11.2,6.466L195.873,86.857l.119,41.811-11.2,6.466-.181-63.747,11.2-6.466,16.546,32.37-.119-41.854Z"/>
        <path id="Path_23687" data-name="Path 23687" d="M262.57,33.484q5.795,3.753,5.942,16.043l.029,10.33a46.879,46.879,0,0,1-5.716,23.06,41.545,41.545,0,0,1-15.89,16.339l-14.359,8.29L232.4,43.8l14.666-8.467Q256.781,29.72,262.57,33.484Zm-5.225,33.931-.031-11.078q-.025-8.925-2.212-11.2t-7.4.567l-4.08,2.356.12,42.338,3.352-1.935a18.789,18.789,0,0,0,7.882-7.945q2.27-4.717,2.367-13.1"/>
        <path id="Path_23688" data-name="Path 23688" d="M308.258,0l.03,10.726L287.71,22.607l.043,15.062L305.2,27.594l.029,10.381L287.782,48.049l.048,16.9,20.654-11.925.03,10.682L276.656,82.1l-.181-63.747Z"/>
        <path id="Path_23689" data-name="Path 23689" d="M38.983,222.418l-15.812,37.2L39.432,286.01l-13.3,7.678L15.924,274.943l-4.4,8.941.052,18.209L.37,308.562.189,244.815l11.205-6.469.079,27.805L15,257.231,25.262,230.34Z"/>
        <path id="Path_23690" data-name="Path 23690" d="M79.449,199.055l.125,44.136a35.3,35.3,0,0,1-4.72,17.966A36.078,36.078,0,0,1,61.416,274.2q-8.916,5.148-13.633,2.522t-4.756-12.737L42.9,220.155l11.282-6.514.124,43.872c.01,3.617.528,5.912,1.548,6.866s2.86.678,5.529-.862a12.8,12.8,0,0,0,5.478-5.47,20.222,20.222,0,0,0,1.505-8.431l-.125-44.092Z"/>
        <path id="Path_23691" data-name="Path 23691" d="M213.795,121.49l.03,10.726-13.714,7.918.15,53.021-11.243,6.491-.15-53.021-13.484,7.785-.03-10.726Z"/>
      </g>
      <g id="_07_STAIR_UP" data-name="07_STAIR UP" transform="translate(667.342 518.737)">
        <path id="Path_19122" data-name="Path 19122" d="M12282.7,586.273l-43.766,25.309v10.123l43.766-25.31Z" transform="translate(-12203.861 -535.648)" stroke="#000" stroke-linejoin="round" stroke-width="2.288" fill-rule="evenodd"/>
        <path id="Path_19123" data-name="Path 19123" d="M12311.336,737.3l43.766-25.309-8.719-5.064-43.852,25.31Z" transform="translate(-12206.039 -539.868)" fill="#fff" stroke="#000" stroke-linejoin="round" stroke-width="2.288" fill-rule="evenodd"/>
        <path id="Path_19124" data-name="Path 19124" d="M12337.211,691.186l-43.766,25.31,8.719,5.059,43.852-25.309Z" transform="translate(-12205.773 -539.317)" fill="#fff" stroke="#000" stroke-linejoin="round" stroke-width="2.288" fill-rule="evenodd"/>
        <path id="Path_19125" data-name="Path 19125" d="M12328.289,675.449l-43.93,25.31,8.8,5.063,43.852-25.309Z" transform="translate(-12205.401 -538.765)" fill="#fff" stroke="#000" stroke-linejoin="round" stroke-width="2.288" fill-rule="evenodd"/>
        <path id="Path_19126" data-name="Path 19126" d="M12319.117,659.712l-43.844,25.314,8.719,5.063,43.93-25.319Z" transform="translate(-12205.137 -538.22)" fill="#fff" stroke="#000" stroke-linejoin="round" stroke-width="2.288" fill-rule="evenodd"/>
        <path id="Path_19127" data-name="Path 19127" d="M12318.828,649.039l-8.719-5.064-43.93,25.319,8.883,5.059Z" transform="translate(-12204.756 -537.669)" fill="#fff" stroke="#000" stroke-linejoin="round" stroke-width="2.288" fill-rule="evenodd"/>
        <path id="Path_19128" data-name="Path 19128" d="M12300.867,628.238l-43.766,25.31,8.719,5.063,43.852-25.309Z" transform="translate(-12204.499 -537.118)" fill="#fff" stroke="#000" stroke-linejoin="round" stroke-width="2.288" fill-rule="evenodd"/>
        <path id="Path_19129" data-name="Path 19129" d="M12291.945,612.5l-43.93,25.31,8.8,5.063,43.766-25.309Z" transform="translate(-12204.126 -536.567)" fill="#fff" stroke="#000" stroke-linejoin="round" stroke-width="2.288" fill-rule="evenodd"/>
        <path id="Path_19130" data-name="Path 19130" d="M12282.7,596.765l-43.766,25.31,8.719,5.063,43.93-25.309Z" transform="translate(-12203.861 -536.016)" fill="#fff" stroke="#000" stroke-linejoin="round" stroke-width="2.288" fill-rule="evenodd"/>
        <path id="Path_19131" data-name="Path 19131" d="M12238.727,611.4l43.773-25.309-8.727-5.064-43.93,25.314Z" transform="translate(-12203.488 -535.464)" fill="#fff" stroke="#000" stroke-linejoin="round" stroke-width="2.288" fill-rule="evenodd"/>
        <path id="Path_19132" data-name="Path 19132" d="M12211.3,564.19l43.93-25.309-8.883-5.064-43.766,25.31Z" transform="translate(-12202.586 -533.817)" fill="#fff" stroke="#000" stroke-linejoin="round" stroke-width="2.288" fill-rule="evenodd"/>
        <path id="Path_19133" data-name="Path 19133" d="M12211.672,574.864l8.8,5.063,43.773-25.314-1.023-.624-7.7-4.435-8.172,4.764Z" transform="translate(-12202.86 -534.368)" fill="#fff" stroke="#000" stroke-linejoin="round" stroke-width="2.288" fill-rule="evenodd"/>
        <path id="Path_19134" data-name="Path 19134" d="M12229.477,595.669l43.852-25.314-8.8-5.064-43.766,25.314Z" transform="translate(-12203.224 -534.92)" fill="#fff" stroke="#000" stroke-linejoin="round" stroke-width="2.288" fill-rule="evenodd"/>
        <path id="Path_19135" data-name="Path 19135" d="M12255.523,549.186V539.063l-43.852,25.309V574.5Z" transform="translate(-12202.86 -534.001)" stroke="#000" stroke-linejoin="round" stroke-width="2.288" fill-rule="evenodd"/>
        <path id="Path_19136" data-name="Path 19136" d="M12264.523,554.8l-43.766,25.314v10.128l43.766-25.319Z" transform="translate(-12203.224 -534.552)" stroke="#000" stroke-linejoin="round" stroke-width="2.288" fill-rule="evenodd"/>
        <path id="Path_19137" data-name="Path 19137" d="M12273.773,570.537l-43.93,25.314v10.123l43.93-25.31Z" transform="translate(-12203.488 -535.103)" stroke="#000" stroke-linejoin="round" stroke-width="2.288" fill-rule="evenodd"/>
        <path id="Path_19138" data-name="Path 19138" d="M12291.945,602.01l-43.93,25.314v10.123l43.93-25.31Z" transform="translate(-12204.126 -536.2)" stroke="#000" stroke-linejoin="round" stroke-width="2.288" fill-rule="evenodd"/>
        <path id="Path_19139" data-name="Path 19139" d="M12300.867,617.747l-43.766,25.309v10.123l43.766-25.31Z" transform="translate(-12204.499 -536.75)" stroke="#000" stroke-linejoin="round" stroke-width="2.288" fill-rule="evenodd"/>
        <path id="Path_19140" data-name="Path 19140" d="M12310.109,633.484l-43.93,25.309v10.133l43.93-25.314Z" transform="translate(-12204.756 -537.302)" stroke="#000" stroke-linejoin="round" stroke-width="2.288" fill-rule="evenodd"/>
        <path id="Path_19141" data-name="Path 19141" d="M12319.117,649.221l-43.844,25.314v10.123l43.844-25.314Z" transform="translate(-12205.137 -537.853)" stroke="#000" stroke-linejoin="round" stroke-width="2.288" fill-rule="evenodd"/>
        <path id="Path_19142" data-name="Path 19142" d="M12328.289,675.09V664.958l-43.93,25.319V700.4Z" transform="translate(-12205.401 -538.404)" stroke="#000" stroke-linejoin="round" stroke-width="2.288" fill-rule="evenodd"/>
        <path id="Path_19143" data-name="Path 19143" d="M12337.211,680.695,12293.445,706v10.123l43.766-25.31Z" transform="translate(-12205.773 -538.949)" stroke="#000" stroke-linejoin="round" stroke-width="2.288" fill-rule="evenodd"/>
        <path id="Path_19144" data-name="Path 19144" d="M12346.383,696.431l-43.852,25.309v10.123l43.852-25.31Z" transform="translate(-12206.039 -539.5)" stroke="#000" stroke-linejoin="round" stroke-width="2.288" fill-rule="evenodd"/>
        <path id="Path_19145" data-name="Path 19145" d="M12311.6,737.477V747.6l43.852-25.31V712.168Z" transform="translate(-12206.396 -540.051)" stroke="#000" stroke-linejoin="round" stroke-width="2.288" fill-rule="evenodd"/>
      </g>
      <g id="_07_STAIR_SPIRAL" data-name="07_STAIR_SPIRAL" transform="translate(1084.701 315.63)">
        <path id="Path_19146" data-name="Path 19146" d="M12676.438,442.318v20.25l14.141-22.421-14.141-1.444Z" transform="translate(-12636.526 -327.387)" fill="#fff" stroke="#000" stroke-linejoin="round" stroke-width="2.288" fill-rule="evenodd"/>
        <path id="Path_19147" data-name="Path 19147" d="M12643.313,426.031v-9.98l-8.25,1.282,7.938,8.855Z" transform="translate(-12635.063 -326.593)" fill="#fff" stroke="#000" stroke-linejoin="round" stroke-width="2.288" fill-rule="evenodd"/>
        <path id="Path_19148" data-name="Path 19148" d="M12661.922,407.228l-17.289,8.359.625.58.633.563.625.535.633.518.7.489.711.469.7.447.711.417.781.4.789.366.789.346c.078.057,5.578-3.055,5.578-3.055v-5.435Z" transform="translate(-12635.429 -326.286)" fill="#fff" stroke="#000" stroke-linejoin="round" stroke-width="2.288" fill-rule="evenodd"/>
        <path id="Path_19149" data-name="Path 19149" d="M12662.344,406.626l-4.008,5,17.445,2.232v-23.86Z" transform="translate(-12635.86 -325.684)" fill="#fff" stroke="#000" stroke-linejoin="round" stroke-width="2.288" fill-rule="evenodd"/>
        <path id="Path_19150" data-name="Path 19150" d="M12693.883,401.13l-17.445-21.628v23.863Z" transform="translate(-12636.526 -325.317)" fill="#fff" stroke="#000" stroke-linejoin="round" stroke-width="2.288" fill-rule="evenodd"/>
        <path id="Path_19151" data-name="Path 19151" d="M12695.758,390.123l12.414-5.776-31.75-15.336,17.453,21.626Z" transform="translate(-12636.511 -324.949)" fill="#fff" stroke="#000" stroke-linejoin="round" stroke-width="2.288" fill-rule="evenodd"/>
        <path id="Path_19152" data-name="Path 19152" d="M12708.1,373.858l8.25-9.163-39.914-6.176Z" transform="translate(-12636.526 -324.582)" fill="#fff" stroke="#000" stroke-linejoin="round" stroke-width="2.288" fill-rule="evenodd"/>
        <path id="Path_19153" data-name="Path 19153" d="M12717.063,332.9l-6.836-9.543-33.789,13.688Z" transform="translate(-12636.526 -323.354)" fill="#fff" stroke="#000" stroke-linejoin="round" stroke-width="2.288" fill-rule="evenodd"/>
        <path id="Path_19154" data-name="Path 19154" d="M12716.352,354.056l.711-10.322-40.625,4.145Z" transform="translate(-12636.526 -324.065)" fill="#fff" stroke="#000" stroke-linejoin="round" stroke-width="2.288" fill-rule="evenodd"/>
        <path id="Path_19155" data-name="Path 19155" d="M12690.578,450.686l-14.141,22.421,29.227-16.871Z" transform="translate(-12636.526 -327.805)" fill="#fff" stroke="#000" stroke-linejoin="round" stroke-width="2.288" fill-rule="evenodd"/>
        <path id="Path_19156" data-name="Path 19156" d="M12676.438,347.511l40.625-4.143V333.243l-40.625,4.146Z" transform="translate(-12636.526 -323.7)" stroke="#000" stroke-linejoin="round" stroke-width="2.288" fill-rule="evenodd"/>
        <path id="Path_19157" data-name="Path 19157" d="M12716.352,364.327V354.2l-39.914-6.176v10.125Z" transform="translate(-12636.526 -324.217)" stroke="#000" stroke-linejoin="round" stroke-width="2.288" fill-rule="evenodd"/>
        <path id="Path_19158" data-name="Path 19158" d="M12676.438,368.647l31.664,15.336V373.858l-31.664-15.339Z" transform="translate(-12636.526 -324.582)" stroke="#000" stroke-linejoin="round" stroke-width="2.288" fill-rule="evenodd"/>
        <path id="Path_19159" data-name="Path 19159" d="M12693.883,400.761V390.636l-17.445-21.625v10.123Z" transform="translate(-12636.526 -324.949)" stroke="#000" stroke-linejoin="round" stroke-width="2.288" fill-rule="evenodd"/>
        <path id="Path_19160" data-name="Path 19160" d="M12635.063,427.325l22.945,7.215,15.164,15.174,1.813,11.933V414.639l-17.453-2.235v5.435l-5.5,3.111c-.078-.056-.859-.4-.859-.4l-.789-.366-.781-.4-.633-.417-.789-.444-.7-.469-.711-.491-.625-.516-.633-.538-.625-.56-.625-.58s-.945.152-.945.152V425.9l-.312.155-7.547-8.438-.391,2.51v7.2Z" transform="translate(-12635.063 -326.466)" stroke="#000" stroke-linejoin="round" stroke-width="2.288" fill-rule="evenodd"/>
        <path id="Path_19161" data-name="Path 19161" d="M12676.438,462.616v10.127l14.141-22.426V440.2Z" transform="translate(-12636.526 -327.437)" stroke="#000" stroke-linejoin="round" stroke-width="2.288" fill-rule="evenodd"/>
        <path id="Path_19162" data-name="Path 19162" d="M12676.438,483.436l29.227-16.876V456.438l-29.227,16.876Z" transform="translate(-12636.526 -328.007)" stroke="#000" stroke-linejoin="round" stroke-width="2.288" fill-rule="evenodd"/>
      </g>
      <g id="_07_COLOMUN_01" data-name="07_COLOMUN_01" transform="translate(1322.302 256.327)">
        <path id="Path_19177" data-name="Path 19177" d="M12898.8,297.2l-17.523-10.123v5.062l17.523,10.127Z" transform="translate(-12881.273 -262.783)" fill="#fff" stroke="#000" stroke-linejoin="round" stroke-width="2.288" fill-rule="evenodd"/>
        <path id="Path_19178" data-name="Path 19178" d="M12923.391,261.9l-42.117,24.3,17.523,10.123,42.117-24.3Z" transform="translate(-12881.273 -261.902)" fill="#fff" stroke="#000" stroke-linejoin="round" stroke-width="2.288" fill-rule="evenodd"/>
        <path id="Path_19179" data-name="Path 19179" d="M12899.43,296.693v5.064l12.344-2.026,17.523-10.123,12.258-12.151v-5.064Z" transform="translate(-12881.896 -262.269)" fill="#fff" stroke="#000" stroke-linejoin="round" stroke-width="2.288" fill-rule="evenodd"/>
        <path id="Path_19180" data-name="Path 19180" d="M12901.453,302.209V442.246l.313.351.156.346.234.336.234.327.32.317.156.312.313.3.313.292.313.28.242.27.391.26.313.248.313.236.32.228.391.214.313.2.391.189.4.177.391.162.391.152.4.14.391.123.391.113.4.1.313.086.391.069.391.054.477.044.391.027.391.015h.4l.391-.015.469-.027.4-.044.391-.054.391-.069.391-.086.4-.1.469-.113.391-.123.4-.14.313-.152.391-.162.391-.177.4-.189.313-.2.313-.214.4-.228.313-.236.391-.248.234-.26.313-.27.32-.28.313-.292.234-.3.313-.312.156-.317.32-.327.234-.336.234-.346.234-.351V294.538l-10.375,5.965Z" transform="translate(-12881.983 -263.043)" fill="#fff" stroke="#000" stroke-linejoin="round" stroke-width="2.288" fill-rule="evenodd"/>
      </g>
      <g id="_07_COLOMUN_01-2" data-name="07_COLOMUN_01" transform="translate(574.944 546.796)">
        <path id="Path_19181" data-name="Path 19181" d="M12124.367,598.194l-17.523-10.123v5.064l17.523,10.123Z" transform="translate(-12106.844 -563.774)" fill="#fff" stroke="#000" stroke-linejoin="round" stroke-width="2.288" fill-rule="evenodd"/>
        <path id="Path_19182" data-name="Path 19182" d="M12148.883,562.893l-42.039,24.3,17.523,10.123,42.047-24.3Z" transform="translate(-12106.844 -562.893)" fill="#fff" stroke="#000" stroke-linejoin="round" stroke-width="2.288" fill-rule="evenodd"/>
        <path id="Path_19183" data-name="Path 19183" d="M12125.016,597.682v5.059l12.258-2.019,17.6-10.127,12.18-12.151v-5.059Z" transform="translate(-12107.481 -563.26)" fill="#fff" stroke="#000" stroke-linejoin="round" stroke-width="2.288" fill-rule="evenodd"/>
        <path id="Path_19184" data-name="Path 19184" d="M12127.023,603.2V743.239l.234.349.313.339.164.339.313.329.156.319.313.31.313.3.242.29.313.28.313.271.234.255.4.255.313.236.391.221.313.216.4.2.391.192.234.172.391.167.4.147.391.143.391.128.4.108.391.1.469.083.391.064.4.064.391.039.391.024.477.02h.391l.391-.02.4-.024.469-.039.391-.064.4-.064.391-.083.391-.1.391-.108.32-.128.391-.143.391-.147.4-.167.391-.172.391-.192.313-.2.4-.216.234-.221.391-.236.313-.255.32-.255.391-.271.234-.28.313-.29.32-.3.156-.31.313-.319.313-.329.156-.339.234-.339.164-.349V595.528l-10.3,5.963Z" transform="translate(-12107.554 -564.03)" fill="#fff" stroke="#000" stroke-linejoin="round" stroke-width="2.288" fill-rule="evenodd"/>
      </g>
    </g>
  </g>
</svg>
